<svg width="616" height="429" viewBox="0 0 616 429" fill="none" xmlns="http://www.w3.org/2000/svg">
<g clip-path="url(#clip0_32_187)">
<path d="M122.734 429C190.518 429 245.468 424.823 245.468 419.669C245.468 414.516 190.518 410.339 122.734 410.339C54.9498 410.339 0 414.516 0 419.669C0 424.823 54.9498 429 122.734 429Z" fill="#E6E6E6"/>
<path d="M93.8154 95.1876C115.175 86.0939 141.778 91.8555 167.759 95.8544C168.001 91.0118 170.932 85.1181 167.862 81.7396C164.132 77.6351 164.476 73.3224 166.72 68.9848C172.459 57.893 164.237 46.0908 155.935 36.2773C154.064 34.0704 151.699 32.3364 149.032 31.2162C146.366 30.0959 143.473 29.621 140.589 29.83L125.21 30.9296C121.468 31.1971 117.897 32.6023 114.974 34.9571C112.051 37.3118 109.917 40.5039 108.856 44.1061C105.184 49.1051 103.219 54.0903 104.456 59.0495C98.956 62.8119 98.0319 67.3536 100.504 72.4735C102.599 75.6971 102.577 78.8351 100.408 81.8862C97.5599 85.7761 95.3783 90.1135 93.9529 94.7206L93.8154 95.1876Z" fill="#2F2E41"/>
<path d="M601.403 370.864H166.072C162.201 370.864 158.488 369.324 155.751 366.584C153.013 363.844 151.475 360.128 151.475 356.252C309.283 337.894 464.124 337.894 616 356.252C616 360.128 614.462 363.844 611.725 366.584C608.987 369.324 605.274 370.864 601.403 370.864Z" fill="#2F2E41"/>
<path d="M616 357.112L151.475 356.253L205.312 265.578L205.57 265.148V65.3115C205.569 62.8859 206.047 60.4841 206.974 58.2431C207.901 56.0021 209.26 53.9659 210.974 52.2507C212.687 50.5356 214.721 49.1751 216.96 48.2469C219.199 47.3188 221.599 46.8412 224.022 46.8414H540.877C543.301 46.8412 545.7 47.3188 547.939 48.2469C550.178 49.1751 552.212 50.5356 553.926 52.2507C555.639 53.9659 556.998 56.0021 557.925 58.2431C558.853 60.4841 559.33 62.8859 559.33 65.3115V266.523L616 357.112Z" fill="#3F3D56"/>
<path d="M223.601 59.7335C222.008 59.7353 220.48 60.3698 219.353 61.4977C218.226 62.6256 217.593 64.1548 217.591 65.7499V247.959C217.593 249.554 218.227 251.083 219.353 252.211C220.48 253.339 222.008 253.973 223.601 253.975H543.874C545.468 253.973 546.995 253.339 548.122 252.211C549.249 251.083 549.883 249.554 549.885 247.959V65.7499C549.883 64.1548 549.249 62.6256 548.122 61.4977C546.995 60.3699 545.468 59.7354 543.874 59.7335H223.601Z" fill="white"/>
<path d="M224.943 278.04C224.451 278.041 223.969 278.183 223.554 278.449C223.14 278.715 222.81 279.094 222.603 279.541L206.014 315.639C205.834 316.032 205.755 316.464 205.784 316.895C205.814 317.327 205.952 317.743 206.185 318.108C206.418 318.472 206.739 318.771 207.118 318.979C207.497 319.186 207.922 319.295 208.354 319.295H557.207C557.646 319.295 558.078 319.183 558.462 318.969C558.845 318.755 559.168 318.446 559.399 318.072C559.629 317.698 559.761 317.271 559.78 316.832C559.8 316.393 559.707 315.956 559.511 315.563L541.479 279.465C541.267 279.036 540.938 278.675 540.531 278.423C540.124 278.172 539.655 278.039 539.176 278.04H224.943Z" fill="#2F2E41"/>
<path d="M382.45 56.7254C384.584 56.7254 386.314 54.9938 386.314 52.8577C386.314 50.7217 384.584 48.9901 382.45 48.9901C380.316 48.9901 378.586 50.7217 378.586 52.8577C378.586 54.9938 380.316 56.7254 382.45 56.7254Z" fill="white"/>
<path d="M348.16 326.171C347.594 326.172 347.044 326.359 346.594 326.704C346.145 327.048 345.821 327.532 345.673 328.079L341.512 343.549C341.409 343.931 341.396 344.332 341.472 344.72C341.549 345.109 341.714 345.474 341.955 345.788C342.195 346.102 342.504 346.357 342.859 346.532C343.214 346.707 343.604 346.798 343.999 346.798H423.135C423.545 346.798 423.95 346.7 424.315 346.512C424.68 346.323 424.995 346.05 425.233 345.715C425.471 345.38 425.625 344.993 425.684 344.587C425.742 344.18 425.702 343.765 425.568 343.376L420.218 327.906C420.043 327.399 419.714 326.96 419.278 326.649C418.842 326.338 418.319 326.171 417.784 326.171H348.16Z" fill="#2F2E41"/>
<path d="M559.329 262.14V265.578H205.312L205.578 265.148V262.14H559.329Z" fill="#2F2E41"/>
<path d="M549.455 120.327C582.65 120.327 609.56 93.3905 609.56 60.1633C609.56 26.936 582.65 0 549.455 0C516.26 0 489.351 26.936 489.351 60.1633C489.351 93.3905 516.26 120.327 549.455 120.327Z" fill="#5FAAB1"/>
<path d="M574.356 86.3773H524.555C523.644 86.3764 522.771 86.0139 522.127 85.3694C521.483 84.7248 521.121 83.8509 521.12 82.9394V52.8577C521.121 51.9463 521.483 51.0724 522.127 50.4279C522.771 49.7833 523.644 49.4208 524.555 49.4198H574.356C575.266 49.4208 576.139 49.7833 576.783 50.4279C577.427 51.0724 577.789 51.9463 577.79 52.8577V82.9394C577.79 83.8509 577.427 84.7248 576.783 85.3694C576.14 86.0139 575.266 86.3764 574.356 86.3773ZM524.555 52.8578V82.9394H574.358L574.356 52.8577L524.555 52.8578Z" fill="white"/>
<path d="M564.911 52.8577H534V39.1061C534 29.1458 540.5 21.9166 549.455 21.9166C558.411 21.9166 564.911 29.1458 564.911 39.1061L564.911 52.8577ZM537.434 49.4198H561.476V39.1061C561.476 31.0095 556.533 25.3545 549.455 25.3545C542.377 25.3545 537.434 31.0095 537.434 39.1061L537.434 49.4198Z" fill="white"/>
<path d="M549.455 70.477C551.352 70.477 552.89 68.9378 552.89 67.0391C552.89 65.1404 551.352 63.6012 549.455 63.6012C547.558 63.6012 546.021 65.1404 546.021 67.0391C546.021 68.9378 547.558 70.477 549.455 70.477Z" fill="white"/>
<path d="M507.497 192.172H259.978C258.763 192.17 257.598 191.686 256.739 190.826C255.88 189.966 255.396 188.8 255.395 187.583V126.125C255.396 124.909 255.88 123.742 256.739 122.882C257.598 122.022 258.763 121.538 259.978 121.537H507.497C508.712 121.538 509.877 122.022 510.736 122.882C511.596 123.742 512.079 124.909 512.081 126.125V187.583C512.079 188.8 511.596 189.966 510.736 190.826C509.877 191.686 508.712 192.17 507.497 192.172ZM259.978 123.372C259.249 123.373 258.55 123.663 258.035 124.179C257.519 124.695 257.229 125.395 257.228 126.125V187.583C257.229 188.313 257.519 189.013 258.035 189.529C258.55 190.045 259.249 190.336 259.978 190.336H507.497C508.226 190.336 508.925 190.045 509.441 189.529C509.956 189.013 510.246 188.313 510.247 187.583V126.125C510.246 125.395 509.956 124.695 509.441 124.179C508.925 123.663 508.226 123.373 507.497 123.372L259.978 123.372Z" fill="#E6E6E6"/>
<path d="M298.438 173.186C308.75 173.186 317.109 164.818 317.109 154.496C317.109 144.174 308.75 135.806 298.438 135.806C288.126 135.806 279.766 144.174 279.766 154.496C279.766 164.818 288.126 173.186 298.438 173.186Z" fill="#E6E6E6"/>
<path d="M341.56 142.036C341.151 142.036 340.746 142.116 340.368 142.272C339.989 142.428 339.646 142.658 339.356 142.947C339.067 143.236 338.837 143.58 338.68 143.958C338.524 144.336 338.443 144.742 338.443 145.151C338.443 145.561 338.524 145.966 338.68 146.344C338.837 146.723 339.067 147.066 339.356 147.356C339.646 147.645 339.989 147.874 340.368 148.031C340.746 148.187 341.151 148.267 341.56 148.266H488.264C489.089 148.266 489.881 147.938 490.464 147.354C491.048 146.77 491.376 145.977 491.376 145.151C491.376 144.325 491.048 143.533 490.464 142.949C489.881 142.365 489.089 142.036 488.264 142.036H341.56Z" fill="#E6E6E6"/>
<path d="M341.56 160.726C340.735 160.726 339.943 161.054 339.359 161.638C338.776 162.222 338.448 163.015 338.448 163.841C338.448 164.667 338.776 165.459 339.359 166.043C339.943 166.628 340.735 166.956 341.56 166.956H404.687C405.512 166.956 406.304 166.628 406.887 166.043C407.471 165.459 407.799 164.667 407.799 163.841C407.799 163.015 407.471 162.222 406.887 161.638C406.304 161.054 405.512 160.726 404.687 160.726H341.56Z" fill="#E6E6E6"/>
<path d="M204.703 161.986L158.947 186.336L158.368 166.044C173.302 163.549 187.511 159.204 200.649 152.13L205.434 140.296C205.956 139.006 206.803 137.875 207.894 137.012C208.984 136.149 210.28 135.585 211.654 135.375C213.027 135.165 214.432 135.317 215.73 135.814C217.028 136.312 218.174 137.139 219.056 138.214C220.347 139.787 220.992 141.792 220.861 143.823C220.73 145.854 219.833 147.759 218.351 149.153L204.703 161.986Z" fill="#FFB8B8"/>
<path d="M92.9036 302.571C92.5698 301.346 92.4989 300.063 92.6956 298.809C92.8923 297.554 93.3522 296.355 94.0449 295.291L104.096 279.85C106.473 276.198 110.121 273.56 114.332 272.448C118.543 271.336 123.016 271.83 126.883 273.833C122.659 281.03 123.248 287.344 128.342 292.831C120.434 296.695 113.125 301.683 106.642 307.639C105.458 308.447 104.099 308.96 102.677 309.135C101.255 309.311 99.8123 309.144 98.4682 308.648C97.1242 308.152 95.9179 307.342 94.95 306.285C93.982 305.228 93.2804 303.954 92.9036 302.571Z" fill="#2F2E41"/>
<path d="M206.787 282.382C205.266 284.92 203.119 287.023 200.552 288.491C197.985 289.959 195.084 290.741 192.128 290.764L125.355 291.27L122.459 274.457L151.997 265.761L127.092 246.629L154.314 214.743L203.757 260.871C206.647 263.567 208.525 267.174 209.076 271.09C209.628 275.005 208.82 278.992 206.787 282.382Z" fill="#2F2E41"/>
<path d="M114.929 397.364H99.2912C85.2505 301.027 70.9584 204.421 113.192 168.363L163.002 176.48L156.631 218.801L128.83 250.688L114.929 397.364Z" fill="#2F2E41"/>
<path d="M128.676 419.187C127.451 419.522 126.17 419.593 124.917 419.396C123.663 419.199 122.466 418.739 121.402 418.045L104.423 415.761C100.774 413.381 98.1386 409.73 97.0275 405.516C95.9164 401.301 96.4089 396.823 98.4095 392.952C105.6 397.18 111.908 396.59 117.389 391.49C121.262 399.318 127.644 398.841 133.738 405.436C134.545 406.62 135.058 407.981 135.233 409.404C135.408 410.827 135.241 412.272 134.746 413.617C134.251 414.962 133.441 416.17 132.386 417.139C131.33 418.108 130.058 418.81 128.676 419.187Z" fill="#2F2E41"/>
<path d="M151.997 104.011L123.038 97.0541C127.848 87.1995 128.244 76.2342 125.934 64.5881L145.626 64.0084C146.243 78.4906 148.11 92.0206 151.997 104.011Z" fill="#FFB8B8"/>
<path d="M159.956 193.936C138.875 208.315 123.979 194.428 112.612 173.001C114.192 159.89 111.634 144.2 106.898 127.152C104.791 119.632 105.578 111.595 109.102 104.628C112.626 97.6605 118.632 92.2688 125.934 89.5174L150.839 99.9529C171.986 117.207 176.148 135.897 168.214 155.609L159.956 193.936Z" fill="#5FAAB1"/>
<path d="M99.2911 118.505L76.1236 130.68L117.246 155.029L122.968 169.157C123.35 170.1 123.536 171.111 123.515 172.128C123.493 173.145 123.265 174.147 122.845 175.074C122.424 176 121.819 176.831 121.067 177.515C120.315 178.2 119.432 178.724 118.471 179.056C117.378 179.433 116.214 179.552 115.068 179.403C113.922 179.254 112.826 178.842 111.866 178.198C110.905 177.555 110.107 176.698 109.533 175.694C108.959 174.69 108.625 173.567 108.558 172.412L107.979 162.566L55.713 145.301C53.952 144.72 52.3464 143.744 51.0177 142.45C49.689 141.155 48.6721 139.574 48.044 137.828C47.1284 135.282 47.0818 132.504 47.9115 129.929C48.7411 127.354 50.4002 125.127 52.6291 123.597L94.6576 94.7351L99.2911 118.505Z" fill="#FFB8B8"/>
<path d="M122.459 120.824C112.796 116.585 104.01 121.19 92.9202 124.882L91.1826 94.1553C102.195 88.2804 112.694 86.6964 122.459 91.2566L122.459 120.824Z" fill="#5FAAB1"/>
<path d="M134.017 79.2284C144.228 79.2284 152.506 70.9423 152.506 60.721C152.506 50.4997 144.228 42.2136 134.017 42.2136C123.805 42.2136 115.527 50.4997 115.527 60.721C115.527 70.9423 123.805 79.2284 134.017 79.2284Z" fill="#FFB8B8"/>
<path d="M156.136 58.3858C137.83 60.1805 123.881 57.1837 114.966 48.6508V41.7791H154.583L156.136 58.3858Z" fill="#2F2E41"/>
</g>
<defs>
<clipPath id="clip0_32_187">
<rect width="616" height="429" fill="white"/>
</clipPath>
</defs>
</svg>
