<svg width="626" height="399" viewBox="0 0 626 399" fill="none" xmlns="http://www.w3.org/2000/svg">
<g clip-path="url(#clip0_11_19)">
<path d="M132.837 93.962L156.512 126.284C156.512 126.284 176.697 134.773 200.289 151.818L194.641 160.634C194.641 160.634 155.702 144.688 145.737 137.95L127.541 109.42L132.837 93.962Z" fill="#A0616A"/>
<path d="M214.446 167.473C216.705 164.166 214.022 158.401 208.454 154.595C202.885 150.789 196.539 150.385 194.28 153.691C192.02 156.998 194.703 162.764 200.272 166.57C205.84 170.375 212.186 170.78 214.446 167.473Z" fill="#A0616A"/>
<path d="M121.264 66.3691L129.012 64.1712C129.012 64.1712 133.522 64.1798 136.067 68.6102C138.611 73.0405 156.626 112.542 155.772 114.073C154.918 115.603 153.726 115.941 155.257 116.795C156.787 117.649 158.188 117.216 157.145 118.496C156.102 119.775 157.543 122.586 157.543 122.586L137.668 137.252L121.264 66.3691Z" fill="#5FAAB1"/>
<path d="M91.2043 391.185L100.657 391.184L105.153 354.721L91.2024 354.722L91.2043 391.185Z" fill="#A0616A"/>
<path d="M123.589 390.971C123.884 391.466 124.039 393.066 124.039 393.643C124.039 395.415 122.603 396.852 120.831 396.852H91.5579C90.3491 396.852 89.3693 395.872 89.3693 394.663V393.444C89.3693 393.444 87.9211 389.781 90.9026 385.265C90.9026 385.265 94.6081 388.801 100.145 383.263L101.778 380.305L113.597 388.95L120.148 389.756C121.581 389.933 122.852 389.729 123.589 390.971Z" fill="#2F2E41"/>
<path d="M125.416 381.973L134.738 383.538L145.213 348.323L131.455 346.013L125.416 381.973Z" fill="#A0616A"/>
<path d="M157.389 387.127C157.597 387.665 157.485 389.269 157.39 389.837C157.096 391.585 155.442 392.763 153.694 392.47L124.826 387.619C123.634 387.419 122.83 386.29 123.03 385.098L123.232 383.896C123.232 383.896 122.411 380.043 126.099 376.084C126.099 376.084 129.168 380.185 135.545 375.642L137.646 372.995L147.869 383.479L154.196 385.359C155.581 385.771 156.868 385.78 157.389 387.127Z" fill="#2F2E41"/>
<path d="M144.793 194.872C144.793 194.872 157.492 209.741 157.492 223.372C157.492 237.002 157.802 279.821 157.802 279.821C157.802 279.821 150.368 346.666 148.51 352.242C146.651 357.819 145.722 367.112 145.722 367.112L127.756 362.775C127.756 362.775 125.278 299.889 132.712 285.019L114.747 234.214L108.552 377.955H87.6956C87.6956 377.955 76.9567 302.367 82.5323 282.541C82.5323 282.541 70.1422 206.953 73.2397 202.616C76.3372 198.279 144.793 194.872 144.793 194.872Z" fill="#2F2E41"/>
<path d="M98.6394 46.7943L115.366 48.0334L120.942 57.327C120.942 57.327 133.951 62.9031 135.81 70.9575C137.668 79.0119 138.288 173.187 138.288 173.187L147.58 186.817L146.961 198.589L72.6202 202.306V190.988L65.8056 177.524C65.8056 177.524 73.2397 69.7184 75.0982 69.0988C76.9567 68.4792 91.2053 58.5661 91.2053 58.5661L98.6394 46.7943Z" fill="#5FAAB1"/>
<path d="M106.21 44.4888C117.843 44.4888 127.273 35.0575 127.273 23.4234C127.273 11.7893 117.843 2.358 106.21 2.358C94.5768 2.358 85.1465 11.7893 85.1465 23.4234C85.1465 35.0575 94.5768 44.4888 106.21 44.4888Z" fill="#A0616A"/>
<path d="M123.034 6.47985C121.962 3.43981 118.989 1.59549 115.767 1.66733C115.63 1.67033 115.494 1.66907 115.359 1.66352C113.736 1.59716 112.178 1.04284 110.587 0.717651C107.621 0.111525 104.494 0.314456 101.632 1.29875C100.742 1.60472 99.8511 1.98947 98.9103 1.98958C97.9694 1.98971 96.9445 1.47374 96.7151 0.561227C96.6606 1.3874 96.6063 2.21352 96.5519 3.03965C96.2457 2.371 95.9396 1.70231 95.6334 1.03362L95.0202 3.70026L93.0558 1.47163C93.2315 2.45393 92.6589 3.44398 91.8835 4.07201C91.1082 4.70008 90.1506 5.04748 89.2327 5.43877C85.271 7.12763 81.5512 10.1178 80.4097 14.2708C79.6885 16.8946 80.0657 19.6793 80.4479 22.3735C80.7857 24.7553 81.153 27.2194 82.4475 29.2468C83.2773 30.5466 84.4734 31.6402 84.9787 33.0972C85.4496 34.4553 85.2712 36.0101 85.9413 37.2818C86.6142 38.5592 88.0034 39.2818 89.363 39.7672C90.7225 40.2527 92.1678 40.596 93.3387 41.4406C94.5094 42.2853 95.8683 44.7185 98.4192 44.5875L99.2425 43.0406C100.089 42.3505 96.9551 42.8976 96.9224 41.8055C96.8897 40.7134 100.694 40.0387 100.155 39.0884C99.3278 37.6311 98.2092 36.3629 97.2775 34.9702C96.1879 33.3416 95.331 31.4387 95.707 29.451C95.8532 28.6777 96.2151 27.9473 96.7663 27.3856C98.3552 25.7664 100.127 26.4781 101.849 26.7097C103.035 26.8695 104.453 26.6851 105.069 25.6582C105.79 24.4568 104.986 22.9285 105.085 21.5308C105.189 20.0499 106.311 18.8355 107.532 17.9912C108.753 17.1469 110.139 16.5318 111.237 15.5332C112.336 14.5346 113.118 12.9744 112.639 11.5692C117.846 9.40139 118.643 9.19636 124.125 10.5184C123.864 9.14719 123.498 7.79619 123.034 6.47985Z" fill="#2F2E41"/>
<path d="M34.1123 275.904V211.963C34.1123 210.21 34.8597 208.531 36.163 207.358C37.4662 206.185 39.2134 205.617 40.9577 205.801C57.1154 203.627 72.3332 204.661 86.1248 210.564C87.687 210.564 88.9579 211.835 88.9579 213.398V277.562C88.9579 279.124 87.687 280.395 86.1248 280.395C70.9434 276.834 54.9312 277.761 38.6029 280.395C36.1268 280.395 34.1123 278.381 34.1123 275.904Z" fill="#E6E6E6"/>
<path d="M34.1123 281.596V216.98C34.1123 213.563 36.8917 210.783 40.3081 210.783C55.7588 206.74 71.0313 206.733 86.1248 210.783C87.687 210.783 88.9579 212.054 88.9579 213.617V277.124C88.9579 278.684 87.6908 279.954 86.1318 279.957C71.2493 277.368 55.3071 279.89 38.6029 286.087C36.1268 286.087 34.1123 284.072 34.1123 281.596Z" fill="#F2F2F2"/>
<path d="M69.7902 237.486H55.3426C50.1538 237.486 45.9325 233.265 45.9325 228.075C45.9325 222.886 50.1538 218.664 55.3426 218.664H69.7902C74.9794 218.664 79.2007 222.886 79.2007 228.075C79.2007 233.265 74.9794 237.486 69.7902 237.486Z" fill="#E6E6E6"/>
<path d="M83.0317 110.572L82.4795 143.932C82.4795 143.932 80.7144 169.931 76.3312 199.189L65.8832 199.856C65.8832 199.856 67.1687 154.173 66.7003 142.152L67.4392 115.453L83.0317 110.572Z" fill="#A0616A"/>
<path d="M72.0942 219.868C76.0966 219.732 79.1553 214.157 78.9262 207.415C78.6971 200.674 75.2668 195.319 71.2645 195.455C67.2622 195.591 64.2034 201.166 64.4325 207.908C64.6616 214.649 68.0919 220.004 72.0942 219.868Z" fill="#A0616A"/>
<path d="M82.8693 68.1003L74.8211 68.3934C74.8211 68.3934 70.5325 69.7896 69.4747 74.788C68.4169 79.7864 61.0019 131.515 62.2852 132.708C63.5685 133.901 64.8067 133.856 63.6136 135.14C62.4205 136.423 60.9543 136.442 62.3403 137.339C63.7263 138.235 63.22 141.354 63.22 141.354L85.4795 139.777L82.8693 68.1003Z" fill="#5FAAB1"/>
<path d="M613.874 366.151H399.736C398.494 366.151 397.263 365.961 396.079 365.586L395.953 365.536C328.902 332.209 271.413 314.02 220.204 309.928L220.009 309.889C214.943 308.287 211.54 303.64 211.54 298.326V12.1384C211.54 8.23063 213.348 4.6646 216.5 2.35521C219.652 0.045816 223.596 -0.602203 227.324 0.57519L396.608 54.126C397.622 54.4468 398.674 54.6091 399.736 54.6091H613.874C620.56 54.6091 626 60.0498 626 66.7369V354.023C626 360.711 620.56 366.151 613.874 366.151ZM396.671 363.934C397.665 364.241 398.696 364.397 399.736 364.397H613.874C619.593 364.397 624.246 359.744 624.246 354.023V66.7369C624.246 61.0169 619.593 56.3635 613.874 56.3635H399.736C398.494 56.3635 397.264 56.1737 396.079 55.799L226.794 2.24813C223.607 1.23906 220.233 1.79499 217.537 3.77031C214.84 5.74606 213.294 8.79599 213.294 12.1384V298.326C213.294 302.839 216.163 306.788 220.445 308.187C271.84 312.313 329.487 330.548 396.671 363.934Z" fill="#3F3D56"/>
<path d="M405.454 353.155C463.84 332.492 528.977 334.864 598.173 351.095C606.86 353.132 615.189 346.591 615.189 337.667V76.1739C615.189 69.8238 610.86 64.2717 604.693 62.7633C531.695 44.9109 463.512 41.6263 403.424 62.8401C399.022 64.3942 394.136 63.5522 390.421 60.7243C339.787 22.1765 287.966 2.84901 234.598 8.58783C227.617 9.33858 222.351 15.2891 222.351 22.3116V286.657C222.351 293.735 227.706 299.653 234.745 300.385C292.187 306.36 344.971 324.468 394.06 352.198C397.535 354.162 401.691 354.487 405.454 353.155Z" fill="#F2F2F2"/>
<path d="M403.579 338.491C399.603 338.491 395.686 337.398 392.235 335.255C351.009 309.649 306.094 294.69 258.739 290.794C247.637 289.88 238.94 280.409 238.94 269.233V43.4386C238.94 31.8497 247.926 22.3538 259.399 21.8206C293.877 20.2128 335.74 35.59 391.139 70.1963C395.825 73.1229 401.523 73.9919 406.773 72.5836C459.422 58.4497 516.493 58.0368 581.25 71.3214C591.303 73.3841 598.6 82.3082 598.6 92.5416V312.937C598.6 319.588 595.609 325.766 590.394 329.885C585.14 334.035 578.38 335.523 571.846 333.968C510.587 319.386 457.984 320.439 411.028 337.191C408.59 338.061 406.072 338.491 403.579 338.491ZM264.321 23.4619C262.688 23.4619 261.079 23.4987 259.48 23.5732C248.946 24.0628 240.694 32.7885 240.694 43.4386V269.233C240.694 279.503 248.683 288.206 258.883 289.045C306.518 292.965 351.695 308.01 393.16 333.765C398.32 336.97 404.618 337.616 410.439 335.539C457.722 318.67 510.652 317.597 572.252 332.261C578.261 333.691 584.476 332.325 589.307 328.508C594.098 324.723 596.846 319.048 596.846 312.937V92.5416C596.846 83.1374 590.139 74.9358 580.897 73.0398C516.414 59.8104 459.607 60.2156 407.228 74.278C401.508 75.8121 395.306 74.8677 390.209 71.6842C337.71 38.8888 297.507 23.4619 264.321 23.4619Z" fill="white"/>
<path d="M399.596 73.8938L397.842 73.91L400.283 338.09L402.037 338.074L399.596 73.8938Z" fill="white"/>
<path d="M256.04 56.4598L255.489 58.125L378.308 98.7677L378.859 97.1025L256.04 56.4598Z" fill="#3F3D56"/>
<path d="M256.04 88.9742L255.489 90.6394L378.308 131.282L378.859 129.617L256.04 88.9742Z" fill="#3F3D56"/>
<path d="M256.04 121.488L255.489 123.153L378.308 163.796L378.859 162.131L256.04 121.488Z" fill="#3F3D56"/>
<path d="M256.04 154.002L255.489 155.667L378.308 196.31L378.859 194.645L256.04 154.002Z" fill="#3F3D56"/>
<path d="M576.357 98.8646H429.155V100.619H576.357V98.8646Z" fill="#3F3D56"/>
<path d="M576.357 129.572H429.155V131.327H576.357V129.572Z" fill="#3F3D56"/>
<path d="M576.357 160.28H429.155V162.034H576.357V160.28Z" fill="#3F3D56"/>
<path d="M576.357 190.988H429.155V192.742H576.357V190.988Z" fill="#3F3D56"/>
<path d="M576.357 221.695H429.155V223.45H576.357V221.695Z" fill="#3F3D56"/>
<path d="M576.357 252.404H429.155V254.158H576.357V252.404Z" fill="#3F3D56"/>
<path d="M47.5887 383.796C45.7767 383.91 44.7753 381.658 46.1462 380.346L46.2826 379.804C46.2646 379.76 46.2466 379.717 46.2284 379.674C44.396 375.304 38.1858 375.334 36.3689 379.71C34.7564 383.595 32.7033 387.485 32.1978 391.592C31.9712 393.405 32.0731 395.252 32.4754 397.031C28.6969 388.776 26.7085 379.763 26.7085 370.698C26.7085 368.421 26.8332 366.143 27.0881 363.871C27.2977 362.013 27.5866 360.166 27.9605 358.336C29.9828 348.444 34.3618 339.022 40.6781 331.153C43.7145 329.493 46.2466 326.898 47.7761 323.788C48.3256 322.666 48.7562 321.46 48.9601 320.23C48.6146 320.276 47.6572 315.012 47.9178 314.689C47.4362 313.959 46.5743 313.595 46.0484 312.882C43.4327 309.335 39.8289 309.955 37.9476 314.774C33.9287 316.803 33.8898 320.167 36.3558 323.403C37.9246 325.461 38.1402 328.247 39.5168 330.451C39.3751 330.632 39.2278 330.808 39.0862 330.989C36.4892 334.32 34.243 337.901 32.3494 341.663C32.8846 337.482 32.0945 332.445 30.7476 329.199C29.2143 325.499 26.3404 322.384 23.8096 319.186C20.7696 315.345 14.536 317.021 14.0004 321.89C13.9952 321.938 13.9902 321.985 13.9852 322.032C14.3612 322.244 14.7294 322.469 15.0892 322.707C17.141 324.064 16.4319 327.245 14.0007 327.621L13.9456 327.629C14.0816 328.983 14.3138 330.326 14.6537 331.646C11.407 344.203 18.4164 348.777 28.4249 348.982C28.6459 349.096 28.8612 349.209 29.0821 349.317C28.0681 352.172 27.258 355.101 26.6575 358.07C26.1194 360.693 25.7455 363.344 25.5359 366.007C25.2753 369.367 25.298 372.743 25.5812 376.097L25.5642 375.978C24.8448 372.284 22.8394 368.834 19.9277 366.443C15.59 362.88 9.46177 361.567 4.78223 358.703C2.52963 357.324 -0.356901 359.106 0.0362355 361.718L0.0553732 361.843C0.752142 362.126 1.4319 362.455 2.08904 362.823C2.46495 363.035 2.83321 363.26 3.19295 363.498C5.24484 364.856 4.53571 368.037 2.10445 368.412L2.04935 368.42C2.00971 368.426 1.9757 368.432 1.93611 368.438C3.1314 371.276 4.79683 373.91 6.88149 376.182C8.91158 387.144 17.6309 388.184 26.9578 384.992H26.9634C27.9831 389.434 29.473 393.773 31.3877 397.909H47.1926C47.2493 397.734 47.3003 397.552 47.3513 397.377C45.8898 397.467 44.4169 397.382 42.978 397.116C44.1506 395.677 45.3232 394.227 46.4959 392.788C46.5242 392.759 46.5469 392.731 46.5695 392.703C47.1643 391.966 47.7648 391.235 48.3596 390.499L48.3599 390.498C48.3972 388.237 48.1257 385.983 47.5887 383.796Z" fill="#F2F2F2"/>
<path d="M224.363 397.956C224.363 398.535 223.898 399 223.319 399H1.16664C0.587797 399 0.122925 398.535 0.122925 397.956C0.122925 397.377 0.587797 396.912 1.16664 396.912H223.319C223.898 396.912 224.363 397.377 224.363 397.956Z" fill="#CCCCCC"/>
<path d="M582.539 342.468C593.68 342.468 602.712 333.435 602.712 322.293C602.712 311.151 593.68 302.118 582.539 302.118C571.398 302.118 562.367 311.151 562.367 322.293C562.367 333.435 571.398 342.468 582.539 342.468Z" fill="#5FAAB1"/>
<path d="M591.986 321.533L579.47 314.305C578.885 313.967 578.154 314.389 578.154 315.065V321.416H574.399C573.915 321.416 573.522 321.808 573.522 322.293C573.522 322.777 573.915 323.17 574.399 323.17H578.154V329.521C578.154 330.196 578.885 330.618 579.47 330.281L591.986 323.053C592.571 322.715 592.571 321.871 591.986 321.533Z" fill="white"/>
<path d="M295.281 265.424C296.067 256.434 299.799 247.845 305.772 241.086C311.591 234.502 319.544 229.985 328.121 228.145C332.909 227.118 337.869 226.918 342.718 227.61C343.878 227.775 343.847 229.618 342.674 229.451C334.422 228.273 325.893 229.712 318.478 233.523C310.877 237.429 304.794 243.782 301.036 251.444C298.887 255.825 297.547 260.606 297.122 265.468C297.019 266.644 295.177 266.608 295.281 265.424Z" fill="white"/>
<path d="M340.676 220.217L354.851 227.212C355.367 227.466 355.452 228.306 355.013 228.668L341.594 239.762C340.686 240.513 339.407 239.186 340.323 238.43L353.742 227.336L353.904 228.792L339.729 221.798C338.664 221.272 339.62 219.696 340.676 220.217Z" fill="white"/>
</g>
<defs>
<clipPath id="clip0_11_19">
<rect width="626" height="399" fill="white"/>
</clipPath>
</defs>
</svg>

